# xmcd CD database file
#
# Track frame offsets:
#	150
#	9032
#	23450
#	40512
#	62017
#	76527
#	89685
#	111127
#	126305
#	144295
#	165545
#	186675
#	186975
#	187275
#	187575
#	187875
#	188175
#	188475
#	188775
#	189075
#	189375
#	189675
#
# Disc length: 2650 seconds
#
# Revision: 0
# Processed by: cddbd v1.5.2PL0 Copyright (c) Steve Scherf et al.
# Submitted via: CDex 1.70beta2
#
DISCID=1a0a5816
DTITLE=三宅伸治　THE SWAMP TRAMP - Happy Days
DYEAR=2001
DGENRE=Rhythmic Soul
TTITLE0=SWAMP TRAMP's theme
TTITLE1=マシンガン
TTITLE2=Down By 中央線
TTITLE3=今夜あたり
TTITLE4=おかしいよ
TTITLE5=友達がいる
TTITLE6=夜の観覧車に乗って
TTITLE7=ディキシーフライヤー
TTITLE8=メリーゴーランド
TTITLE9=風の行き先
TTITLE10=Happy Days
TTITLE11=secret track1
TTITLE12=secret track2
TTITLE13=secret track3
TTITLE14=secret track4
TTITLE15=secret track5
TTITLE16=secret track6
TTITLE17=secret track7
TTITLE18=secret track8
TTITLE19=secret track9
TTITLE20=secret track10
TTITLE21=secret track11
EXTD=YEAR: 2001
EXTT0=
EXTT1=
EXTT2=
EXTT3=
EXTT4=
EXTT5=
EXTT6=
EXTT7=
EXTT8=
EXTT9=
EXTT10=
EXTT11=
EXTT12=
EXTT13=
EXTT14=
EXTT15=
EXTT16=
EXTT17=
EXTT18=
EXTT19=
EXTT20=
EXTT21=
PLAYORDER=
